<?xml version="1.0" encoding="UTF-8"?>
<!-- Generator: visioncortex VTracer 0.6.12 -->
<svg width="2098" height="859" version="1.1" xmlns="http://www.w3.org/2000/svg">
 <g fill="#3d000a">
  <path d="m1249 16.3c1.64 11.9 7.27 23.6 4.72 35.8 3.76 10.9 7.55 21.6 6.67 33.5 3.03 13.8-7.19 27-2.45 40.6 3.49 14 0.887 29.1 5.8 42.8 1.01 12.6 15.6 8.46 23 4.86 16.7-4.68 34.2-6.77 50.5-12.4 8.56-7.79 1.67-20.6 4.77-30.5 1.88-14.5 3.26-29.1 4.43-43.7-1.79-10.2 15.7-29.4 19-12.5-5.69 11.1-7.2 23.3-6.96 35.8-0.58 13.7-1.89 27.5 0.577 41.1 3.74 9.87 16.8 2.48 24.7 1.52 7.81-6.19 1.29-16.8 2.04-25-1.76-19.8 0.31-39.9 6.57-58.8 1.51-12.2-6.67-31.4 8.71-37.2 12.3 1.73 5.05 13.4 0.518 19 0.753 10.7-1.73 20.9-2.83 31.5 2.12 11.9 1.52 24 4.86 35.7 4.03 9.59-3.97 28.2 11.9 28.8 12.9-4.8 27.5-3.24 40-9.49 6.33-11.1 1.84-24.3 3.67-36.4 1.23-16.9-5.28-35.3 3.19-51.1 7.18-11.8 20.4 0.79 14.8 10.7-6.91 21 1.67 43.1-1.54 64.4 7.06 11.6 20.6-2.38 30.7-1.98 31.2-7.95 63.2-13 94-22.7 12.7 1.38 27.9-7.33 23.7-21.8-0.095-15.9 2.34-32 8.79-46.6 9.24-8.93 20 4.79 13.3 13.9-2.75 14.2-6.22 28.6-4.27 43.2 7.46 10.5 20.8-2.83 31-1.27 30.7-5.04 60.7-13.2 91.2-18.5 23.2-4.91 44.7-15.3 67.8-20.9 26.3-7.09 53-13.2 80.1-16.2 10.3 0.0445 19.9-7.97 29.7-6.28 6.58 12.9-12.8 13-19.6 18.6-20.8 12.4-46.1 9.14-68.5 16.3-13.7 3.43-27 8.2-40.6 11.9-7.85 2.43-5.31 10.8 2.25 6.86 16.4-1.7 33-1.72 49.1-5.35 24.9-4.81 49.9-9.49 74.9-13.8 24-5.29 48-14.1 73-12.1 13.6-3.21 15.5 18.7 1.66 18.8-9.42 0.743-18.9-0.127-28.2 2.7-18 4.33-36.7 5.26-54.4 11-17 5.39-34.9 6.07-52 11.3-14.3 3.91-29.1 6.75-43.9 7.24-18.4 4.38-37.4 2.76-55.9 6.13-26.8 4.12-53.5 9.39-80.1 14.6-17.5 4.44-34.1 11.8-52 14.7-31.4 6.5-62.7 13.6-92.7 25-23.7 7.73-49.4 5.37-73.2 12.3-10.6 5.81-20.9 13.4-33.4 14-13.7 1.93-27.4 4.13-40.8 7.88-14.3 1.54-29 0.644-42.7 5.84-24.2 6.65-48.7 15.3-74.3 13.1-17.5-1.07-34.1 5.97-51.5 6.28-19.6 6.72-40.6 7.57-60.2 14.4-26.3 8.46-53.5 13.7-79.1 24.3-13.6 4.63-28 3.9-42 5.74-14-0.0841-27.8-4.83-41.6 0.177-12.1 2.09-24.3 3.47-35.9 7.94-18.7 6.32-38.1 10.6-57.3 15.3-23.7 4.4-48.6 0.258-71.5 8.97-13.5 4.93-27.2 9.13-41.3 12-11.1 5.67-23 8.17-35.4 7.27-12.9 0.368-25.2 5.42-38.2 3.92-14-0.79-28.5-2.13-41.9 2.99-10.7 3.76-21.9 5.65-33.2 5.52-8.3-2.56-24.6 6.72-10.2 11.7 9.25 6.42 19.2 10.9 30.3 12.7 12.8 4.31 26.7 4.4 38.8 10.9 8.82 4.69 18.9 6.72 28.4 8.09 9.87 5.03 22 5.41 32.5 3.91 5.56-6.64 10.5-15 20.5-9.78 11.1 0.297 22.1-1.53 33.2-0.278 12.8-1.56 16.7-17.5 27.9-22.8 14.1-10.4 32.3-17.9 50-14 11-3.32 20 7.82 29.8 3.82 3.75-10.1 5.63-25.2 20.5-25.1 12.4-3.44 25.5-7.33 38.7-3.87 10.6-1.56 22 8.63 31.2 2.5 4.36-4.96 19.6-10.9 20.6-3-3.94-0.951-14.9 0.219-6.52 5.21 13.7 1.76 27.7 4.26 41.5 6.53 8.87 5.38 19.2 0.707 16.4-10.7-3.46-7.66-7.62-20.3 4.12-23.6 7.23-8.16 19.8-4.96 28.3-11.2 12.1 0.601 23.9-3.08 35.7-2.67 11.6 7.01 23 10.7 36.2 12.8 11.4 7.5 24.1 12.3 38.1 9.83 9.65-1.92 21.1 11.5 28.8 0.611 2.15 0.968 9.17 15.1 18.4 12 9.44 1.04 16.5 8.59 25.4 11.4 12.9 6.55 27.5 8.32 41.4 11.4 13.1 5.47 25.6 14.7 40.6 11.2 13.3-2.19 25 4.2 37.2 7.9 8.47 3.43 24 8.26 18.8-7.16-4.44-10.9 6.21-24.5 17.9-19.4 10.9 2.7 21.1 9.42 32.7 9.16 11.3-3.92 22.5-2.03 33.7-1.56 10.9-5.74 21.3 0.182 29.5 7.54 9.55 4.42 18.2 9.92 28 14.1 10.3 4.99 21.3 5.36 32.5 6.56 14.2 7.42 9.11-11.7 6.77-18.8-2.76-18.7-2.56-37.9 0.409-56.6 0.663-21.6-1.27-43.3-6.45-64.3-2.54-18 13.6-33.1 30.1-36.6 19.9-5.49 40.4-8.6 60.5-13.3 19.1-7.08 40.9-8.28 60.1-0.699 11 1.25 21.6 4.32 30.9 10.4 15.7 8.89 32.2 16.1 47.8 25 16.2 9.17 34.4 0.857 51.5 0.267 17.1-2.05 34.8-5.97 51.7-0.113 19 4.77 39.4 8.67 54.2 22.5 11 3.22 10.1 21.1-2.66 16.9-15.1-8.38-32.8-10.6-49.7-13-21.6-3.99-44.2-6.41-65.6-0.301-13.8 0.748-27.1 4.22-39.9 9.17-12.6 3.58-26.7 2.33-38.5 8.24-5.97 8.95-0.485 20.8-1.84 30.9 2.59 12 1.36 24.2 3.37 36.2-0.089 12-3.19 24-0.518 36.1 3 14.2-1.44 28.6 0.342 42.9-1.39 16.7 4.68 32.8 2.86 49.5-0.933 19.4-2.12 38.8-0.337 58.1-0.363 16.5-2.52 33 0.22 49.3 1.3 17.1-5.62 33.7-3.56 50.9-0.91 11.6-1.42 23.4 0.345 35.1 1.31 18.8 0.376 37.8 1.02 56.6-2.84 14.7 6.48 28 17.3 36.9 8.15 9.08 20.6 11.6 30.8 17.5 10.9 3 22 4.98 32.9 7.68 22 3.15 44.3 1.49 66.4 0.746 19.7-0.0283 40.1 8.74 59.2 0.889 7.65-7.89 26.3 4.65 11.1 10.1-11.1 5.07-22.7 10.3-35 8.36-4.47 2.25-1.28 9.1-7.41 4.19-14.3-7.45-30.7-4.35-45.8-1.85-10.8-1.07-21.6 0.906-32.3-0.0259-12.4-1.46-1.82 11.3 5.43 6.67 16.1 0.515 32.4 1.01 47.7 6.49 18.8 4.42 39.8 0.0109 57.2 9.72 11.4 7.32-0.499 17.3-10.3 14-18.6 0.764-36.8-4-55.2-5.86-11.1-1.72-22.2-3.18-33.1-6.24-9.96 1.99-19.6-2.42-29.4-2.01-6.16-3.43-15.4 3.79-4.76 5.02 11 1.06 18.9 8.9 29.2 12.1 9.67 8.3 25.8-0.707 32.4 11.4 1.15 12.3-18.3 9.59-26.7 10-15.1-3.86-29.4-11-44.8-13.9-15.2-3.51-30.5-6.2-45.6-9.79-7.2-7.03-19-0.0355-25-6.66-8.01-6.24-18.8-5.04-27.8-9.02-6.54-1.97-9.3-0.95-2.87 2.91 4.43 13.5-10.5 5.38-16.7 3.4-10.8 1.92-17.7-3.81-22.1-13-5.88-2.72-12.2 6.15-15.4-4.2-8.47-2.23-18.7-3.66-28.5-3.42-14.5-0.47-28.6-11.8-42.7-8.08-7.14 2.54-33.2 5.39-19.6 15.6 10.8 3.36 24.2 4.26 30.8 14.9-1.26 12.4-18.9 1.09-26.4-0.15-10.8 0.948-19.5-7.04-30-7.12 3.83 10.2-9.51 24.2-15.1 9.8-3.68-10.6-14.7-12.2-24.2-9.62-13.5 1.69-27.2 2.71-40.8 0.641-10.4 1.63-20.8 2.6-31.4 1.67-15.8 1.12-30.9-4.76-45.9-8.78-10.3-2.18-19.1-9.64-29.3-11.2-9.97 6.79 0.79 20.1-2.2 29.6 0.81 13.2-18.8 18.3-17.6 2.35-2.68-11.1-9.54-21.3-5.66-33.5 3.71-15.3-14.9-12.7-24.3-13.3-12.6-0.127-25.6-3.64-38-2.44-12.1 2.44-24-2.3-36-3.51-8.6-1.4-25-13.3-25.3 2.73 0.381 19.6-6.25 39.1-2.8 58.7-1.64 13.5-21.7 7.81-17.8-4.89-0.935-15.7 4.21-30.8 5.97-46.3-3.18-13.2-18.3-0.74-26.7-0.476-24.9 5.77-51.1-0.397-73.5-11.6-12.1 2.69-6.35 18.9-9.9 27.7 2.7 7.69-1.11 29.3-11.5 17.9-4.3-11.8-2.6-25.1-0.232-37.2 7.06-9.47-2-16.9-11.4-11.7-10.2-1.65-19.3-10.1-30.9-7.91-8.89-0.147-24.1-7.95-27.2 5.16-5.81 12.7 0.567 28.5-5.76 39.7-15.3 6.78-12.5-14.8-10.5-23.6 2.59-11.3 4.68-30-12.5-28.7-11.4-1.34-22.5-4.42-33.8-6.52-15-1.98-5.07 18-5.31 26.2 2.15 13-8.35 26.1-2.44 38.4 4.06 15.8-16.6 7.61-14.2-3.66 0.308-13.2 3-26.7-1.28-39.6 0.817-12.2 7.05-32.8-12.3-32.9-14.7-0.919-26.7-9.52-39.9-14.2-17.7-2.29-9.75 19.4-13 29.7-1.67 17.1-4.33 34.5 0.188 51.5 3.03 7.01-3.75 24.3-10.3 11.6-8.03-19.8-6.05-41.6-3.83-62.3-8.47-6.7-5.65-17.9-0.615-25.6 2.47-9.46-2.13-19.1 2.04-28.2 0.123-13.8-17.5-10.1-26.7-11.7-10.5-0.693-25-8.56-32.9 1.75-2.43 14.1-5.77 28.7-4.18 43.2 2.79 12.5 2.95 25.4 0.989 38-0.76 17 2.67 35.3-4.7 51.2-5.79 11.6-16 3.31-10.5-6.73 0.795-9.74-0.238-19.4 0.434-29.2-0.893-13.7 3.58-27.6-0.268-41.2 2.57-14.6-13.9-14.4-23.9-14-9.74 3.89-28.8-8.71-27.6 8.63-5.7 9.31-5.36 21.3-6.63 32.4-2.72 11.9 0.941 23.5 2.37 35.1 2.3 13.6-14.7 16.8-14.4 1.83-3.95-16.9-3.16-34.5 0.744-51.4 4.6-9.13 0.729-22.6-11.5-15.5-11.3 1.72-17.4 12.1-16.9 23 0.29 11.1-2.16 22.4-3.12 33 6.2 11.4-9.99 23.1-14.2 8.48 7e-4 -10 2.33-20.1 1.39-30.2 0.0625-13.6-2.77-27.5-0.279-41 4.67-9.31 6.86-19.2 7.36-29.5 1.24-16.5-14.3-0.485-22.4-5.83-11.3-6.73-17.7 5.03-13.4 14.9-1.55 9.93-2.13 20.2 0.0632 30.2 2.53 12.4 7.11 24.4 7.27 37.2 1.81 12.7 0.338 25.7-1.81 38.3-1.89 13.4-20.4 5.23-15-5.88 1.39-14.9 1.29-29.9-4.27-43.9-4.25-17.5-5.43-35.7-4.61-53.7-5.6-12.1-12-24-11.9-37.2-4.57-10.3 5.86-20.7 1.47-30.3-8.78-9.92-22.7-4.36-33.9-3.7-11.1 1.15-28.6-9.64-31.9 7.58 3.35 12.3-1.59 24.9-0.664 37.5 1.35 19.6-4.45 39.3-0.609 58.9 2.36 19-0.271 38 1.55 57 1.14 9.7 3.45 34.6-13.1 25.3-5.2-9.44-3.2-22-4.29-32.9-0.126-17.2 2.29-34.4-0.185-51.6-2.45-21.6 2.15-43.2 0.661-64.8-2.83-10.7 8.63-26.9-1.68-33.8-11.3 1.37-19.5-6.08-28.4-11.6-15.9-4.19-2.71 13.9-7.32 21.8-6.43 10.2-4.57 23-4.58 34.6 1.82 14.4 3.26 29.1-0.0334 43.5-2.42 19.7-9.3 40.1-2.38 59.6 1.86 12-1.52 24.2-3.1 36-10.6 11.9-14.1-12.5-11.2-20.1 2.59-10.9-4.12-21-3.15-32-0.123-16.7 6.74-32.5 6.02-49.2 0.287-19 0.524-38 3.3-56.8 3.99-14.3-12.4-14.6-21.7-17.6-11.3-7.55-22.4 7.43-19.3 18 4.09 12.3 1.09 24.8-1.61 36.8-0.398 12.9 3.56 25.7 1.81 38.6 1.02 17.3 3.61 34.7 1.5 51.9 0.225 14.6 16.8 15.3 24.4 23.8 4.41 6.65 13.7 25.7-0.698 25.4-10-3.96-17.7-15.8-30.4-10.1-12.4 6.33-20-7.59-30.6-9.77-2.77 4.37-8.94 17-14.1 5.56-3.17-8.1 2.53-20-8.74-23.8-7.7-10.2-19.4-5.61-16.5 7.04-1.66 9.62 11 20.8-2.86 26.4-14.9 4.53-12.5-16.7-9.59-25.3-1.37-11 4.1-22.4 0.326-32.9-9.62-3.16-10.2-17.6-20.3-19.3-6.39-3.73-20.3-14.4-21.1-0.152 1.08 12.1-2.67 23.9-1.42 36 0.0731 13.3 15.4 27.3 3.08 39.3-12.2 8-23.3-6.36-26.5-17-10.2-20.7-27.8-36.2-40.7-55-10.3-11.2-13.3-26.8-24.8-37.2-6.22-11.2-16.1-18.9-23.1-29.7-8.63-14.5-14.5-31.3-28.2-42-11.5-9.66-14.8-25.3-25.8-35.1-8.24-9.58-16.3-18.9-25.2-27.8-6.74-10.4-19.3-15.1-24-27.1-5.61-9.31-14.8-15.7-21-24.7-9.43-5.81-20-12-26.6-21.2-4.41-9.23-17.1-8.24-22.5-16.6-6.14-6.38-13.3-12.9-15.6-21.5 4.68-10.5 17.2 4.51 21.1 10.2 4.78 8.24 18.4 6.85 21.2 17.3 3.68 9.53 14.9 12.8 21.8 19.4 7.33 5.92 31.9-1.33 17.2-9.69-7.67-9.48-20.9 8.81-23.4-6.68-4.19-9.28-17.6-6.81-22.3-17.1-8.71-4.67-1.29-19.5-12.2-22-12.7 5.11-13.3-11.5-22.7-14.7-8.27-12.2 11.6-14.1 18.2-7.35 9.3 3.62 20.3 8.21 30 3.4 7.96-5.22 17.9-5.7 27.2-7.83 11.8-3.28 19.5 10.2 12.8 19.7-1.98 10.6 13.3 10.6 9.18-0.837 0.424-8.57-11.1-25.3 1.56-28.1 9.17 4.27 13.1-2.62 10.8-10.9 10.5-10.2 4.16 16.1 16.6 10.2 7.22-3.41 8.1 3.96 12.6 5.57 7.04-6.56 2.48-18.9 14.1-22.5 2.64-7.67-13.7-1.74-18.8-4.18-10.1 3.53-20.6 4.99-31.5 5.09-17.9 3.7-35.2 10-53.4 12.4-11.8 6.03-23.9 12.4-37.6 11.4-11 0.869-14.2-7.61-4.17-11.1-1.58-7.83-21.6-9.77-7.32-16.4 9.8-8.99 7.71-24.9 18-33.8 7.74-7.8 14.3-16.6 19-26.5 1.61-11.2 9.65-19.3 20.8-21.6 9.83-3.84 11.7-16.5 20.4-22.4 12.4-14.2 22.6-30.2 34.3-45 6.8-9.79 16.8-16.8 23.3-26.9 14.8-16.8 30.6-32.8 44.7-50.3 12.4-10.6 17.2-27.5 30.2-37.5 10.1-9.19 15.8-21.8 24.6-32.1 6.33-12.1 13.9-23 22.6-33.5 9.56-12.7 19.3-25.8 33.3-33.9 7.14-10.7 25.8-1.41 17.3 10.4-1.85 5.4-18.9 17.2-6.76 17.2 7.21-7.3 7.23-21.3 19.5-23.8 9.32-4.49 25.2-2.25 21.6 11.4 1.42 10.7-6.67 19.5-5.35 30.3 2.74 11.8-4.24 24.7 2.47 35.8 9.64 2.26 17.5-8.79 22.6-15.4-0.391-10.6-8.24-19.6-8.75-30.5-1.24-8.91-0.463-27.9 12-25.7 6.75 7.83-1.06 19.4 3.23 28.6-2.56 11.1 13.1 17 16.1 4.56 10.4-9.43 22.5-16.8 33.2-25.7 8.82-7.71 23.1-6.48 29.9 3.26 8.53 12.6-10.3 17.8-17.8 23.7-8.84 7.57-19.1 13.2-28 20.7-13.2 15.7-27.3 31.3-45.9 40.6-14.3 9.04-20.5 27.5-37.6 32.6-11.7 3.77-21.1 11.7-29.6 20.3-8.64 8.8-18.8 15.8-29.2 22.3-11.8 6.97-19.5 18.6-31.1 25.4-15.2 12.4-31.8 23-46.1 36.5-7.29 7.26-17.4 10.8-23.9 19.1-8 6.83-17.7 12.2-23.3 21.7-9.54 10.6-23.4 15.8-33.5 25.8-7.66 3.23-15.8 12.6-3.51 14.7 2.04 9.81 13.5 15.2 18.2 3.73-1.85-7.03 3.45-24.6 9.73-11.4 3.86 7.76-1.75 22.4 7.25 25.2 4.38-8.44-3.3-20.2 4.56-28.1 4.99-6.37 20.6-8.74 11.8-19.4 1.9-8.66 18.4-8.01 13.1-20 2.46-14.1 19.4-7.63 27.4-14.3 5.5-9.17 7.62-19.3 18.1-24.5 7.89-6.24 18.3-8.38 21.8-19.2 11.1-12.7 29.7-9.59 44.3-14.3 9.37-7.88 5.54-23.8 17.9-30.2 7.64-10.2 17.5-19 29.4-23.6 9.92-0.856 19.7-2.96 24-13.2 7.87-9.52 19.3-15.2 29.6-21.7 10.7 2.95 19.4-9.06 29.3-5.3 11.1 5.96 22 12.2 33.5 17.4 11.7 6.05 24.4 10.3 37.2 12.6 13 0.633 9.45-14.1 11.7-22.4 2.97-13.3 5.4-26.9 3.09-40.5-1.63-13.5-6.16-30.2 9.52-37.4 10.2-7.65 18.2-17.7 29.3-24.3 8.48-12.1 17.1 1.97 13.4 11.6 0.69 16.3-1.03 32.5-1.59 48.7 0.714 32.9 8.33 65.2 8.91 98.1-1.01 17.3-5.71 34.8-1.24 52-0.215 13.3 2.24 27.2 0.928 40.1-4.8 10.7-17.6 2.68-11.3-7 3.91-20.3-3.01-40.5-2.14-60.8 0.365-11.8 2.63-23.5-0.154-35.2-2.41-13-4.6-26.1-4.79-39.4-2.54-17.7-7.59-35.8-2.87-53.6-1.25-10.7 4.16-29-7.44-34.2-11 1.12-19.8 12.2-18.2 23.3-0.488 18.6 1.24 37.8-3.78 56-2.88 15.5 4.29 30.6 4.71 46.1 2.41 19.4 3.76 39 2.19 58.5-0.564 21.6 4.36 43 3.4 64.7 10.1 5.05 20.8-4.59 31.5-3.49 15.3-1.1 30.5-3.67 45.1-8.48 13.4-4.11 27.1-7.03 40.9-8.98 14.5-5 30-5.03 44.8-8.27 12.7-5.95 2.29-23.6 7.54-34.5 2.44-15.6-6.49-29.9-6.28-45.4-2.07-12.1-3.55-24.2-1.7-36.4-1.62-13 4.05-25.8 0.298-38.6-3.59-13-0.0678-26.6-3.57-39.7-2.79-7.3-6.61-27 7.02-23 7.96 7.95 5.83 21 11.2 30.5 0.655 11.5 1.24 22.9 2.59 34.3-0.297 18.6-4.22 37.2-1.49 55.8 1.3 18.2 6.54 35.9 7.68 54.1-0.381 11.4-5.05 22.5-2.86 34 7.2 8.69 17.2-3.33 26.1-1.47 14.7-2.27 5.94-16.9 6.11-26.1 0.0257-12.5-4.25-24.6-2.29-37.2-0.0795-12.6-4.48-24.9-2.86-37.6 2.79-14.7-2.87-29.7 1.09-44.3 0.682-14.9 0.377-29.7 1.58-44.6 2-9.26-13.5-15.7-4.46-24.3 12.1-5.8 17.6 10.9 17.8 20.1 2 20.7-0.697 41.5-2.82 62-0.113 18.5-1.32 37.2 3.45 55.3 1.73 11.7-2.77 23.6 0.755 35.2 2.26 11-1.09 26.9 9.67 33.6 10.2 0.889 20-3.86 30.2-4.49 11.8-1.87 23.5-5.35 35.2-6 1.08-8.72-4.14-18.1-0.736-27.8 0.587-17-3.64-33.9-2.44-51-2.42-11.5 2.26-23.3-0.417-34.7-6.38-21.8-1.54-44.6-0.699-66.7 3.81-13 15.8-4.66 12.1 5.95 4.32 17.3-1.32 35.2 3.06 52.4 1.84 21.8-0.925 43.7 2.61 65.4 1.33 12.9 2.48 26.2-1.23 38.8 2.95 9.98 14.7 16.6 24 10.4 15-4.5 30.6-6.58 45.8-10.5 9.39-3.68 29.6 2.85 28.3-12.5-3.06-27.4-8.78-54.6-10.2-82.2-2.8-21.3-5.91-42.8-11.3-63.6-5.56-10.4-12.2-24-4.06-34.9 9.62-12.4 16.3 4.1 11.8 13.2 1.06 11.8 15.7 18.3 12 32.2 2.6 21.2 8.52 42.1 8.12 63.6 1.29 20.4 5.91 40.4 8.25 60.7-6.07 10.3 4.79 20.2 14.5 12.8 16.6-4.84 33.4-9.28 50.7-10.3 10.6-6.39 1.41-20.7 4.11-30.5-2.08-12.7-2.06-25.4 0.543-38 0.598-14.4-2.05-28.9-1.18-43.3-2.91-19.2-9.03-38.6-4.42-58.1-1.27-16.2 20.1-8.02 13.6 4-5.22 6.74-3.1 15.9 4.5 18.2 4.43 10.8 0.922 22.8 1.41 34.2-0.64 12.5 0.667 25.1 1.75 37.5-2.48 15.6-0.645 31.3-1.43 46.9-1.14 8.07-4.27 27.5 10.3 21.7 12.3-5.62 26.5-6.33 39.8-9.09 9.4-3.66 28.7-0.287 29-14-3.79-11.1-3.43-22.6-1.06-33.9 0.472-15.1-6.84-29.4-6.43-44.7-1.58-18.4 0.812-36.8 1.64-55.1-2.06-8.53-13.6-28.9 2.38-28.7 5.42 8.55 3.13 19.9 8.37 29 3.64 10 6.97 20.1 4.44 30.8 5.12 24.5 12.6 50 6.86 75.2 0.596 9.66-4.94 29.3 9.67 29.4 19-0.511 37.1-7.18 55.6-10.8 17.4-2.43 1.37-19.2 2.34-28.9-0.469-13.6-1.89-27.3-1.8-40.8 3.96-11.7 7.29-23.7 6.28-36.2-0.953-14-3.62-27.6-4-41.7-0.637-8.3-5.49-22 6.63-24.2zm-866 44.7c-5.22 2.52 5.62 3.22 0 0zm1633 3c-4.24 1.98 3.5 1.44 0 0zm-1633 2 0.155 0.309zm-2 1 0.155 0.309zm1 4c-3.41 1.39 3.02 1.75 0 0zm-31 3c-4.21 0.492 2.16 1.68 0 0zm30 1c-3.81 4.07 5.02 0.803 0 0zm-34 1c-1.91 3.1 3.26-1.11 0 0zm1457 0c-0.077 4.78 3.54-2.68 0 0zm-6.69 2.5c2.88 4.46 2.35-4.83 0 0zm-1422 1.94c-8.35 10-7.89 24.2-8.81 36.5 0.941 8.69-5.95 29.2 8.03 28.3 7.9-3.38 21.4-11.6 9.83-19.8-6.18-11.6 5.13-26.1-0.631-38.7-0.914-3.61-3.92-10.3-8.43-6.18zm791-0.438c-3.27 2.08 3.49 1.59 0 0zm-828 1c-1.41 4.3 3.38-2.06 0 0zm-4 4c-7.83 4.34-2.93 21.2 3.74 8.63 1.37-3.15 0.917-8.94-3.74-8.63zm5 0c-0.0773 4.78 3.54-2.67 0 0zm-5 14 0.155 0.309zm-12 1c-2.92 2.21 2.35 1.3 0 0zm-0.312 3.12c-7.01 11.5-17.5 20.2-25.6 30.8-6.82 5.52-0.0169 17.4 5.4 7.58 3-11.1 15.3-11.4 21.5-18.7 1.6-9.05 20-15.8 5.06-21.6-2.23-0.525-4.86 0.0337-6.31 1.93zm1354 3.88c-10.1 4.09-26.9 0.245-32.9 7.93 8.23 4.15 18.9-3.67 28.2-3.9 4.52-0.0594 19.8-4.94 8.57-4.82-1.23 0.367-2.46 0.963-3.78 0.801zm-42 7c-10.9 3.79-22.8 1.95-33.7 6.17-28 6-55.3 14.9-83.2 21.2-5.64-0.116-22.5 1.59-17.3 8.66 12.2 1.25 23.6-6.23 36.1-4.26 19.9-2.23 38.1-11 57.3-16.1 14.4-5.25 29.1-10.4 44.5-11.8 2.26-1.95-1.6-5.18-3.64-3.83zm-1284-26.8c-2.97 17 2.2 34.1 3.81 51 1.08 5.43 2.17 19.6 3.08 19.7 2.6-23.1-1.22-46.4-6.19-68.9zm41.4 40.8c-1.66 5.19 4.26-2.2 0 0zm-58 6c-8.17 10.6-4.01 24.3-5.46 36-3.48 11.7 7.58 12.3 13.3 4.26 11-7.7 1.21-18.3-2.27-26.9-1.66-4.52-3.07-9.17-5.53-13.3zm-15 9 0.155 0.309zm5 1 0.155 0.309zm-4 1c-2.82 3.13 2.76 0.599 0 0zm4 2c-10.8 2.83-11.2 13.9-11.2 22.8-2.87 7.14-4.47 31.5 7.94 21.9 5.71-12.2 0.943-26 3.96-38.8 0.526-1.96 0.151-4.07-0.661-5.89zm1164 1c-21.7 11.8-46.7 13.7-70.4 18.6-9.85-2.15-13.7 11.2-1.84 10.1 11.5-4.17 23.6-8.71 36.2-9.2 15.2-0.0178 28.5-10.1 40.2-18.2-0.05-1.85-3.12-2.99-4.15-1.29zm-1199 8.5c2.48 5.46 3.93-5.11 0 0zm168 7.5c-4.13 10.7 18.2 3.71 5.28-0.809-1.8-0.183-3.6 0.183-5.28 0.809zm-166-16.2c-3.73 5.7-15.4 15.7-13.2 19 5.53-5.42 9.88-12 13.2-19zm1109 24.6c-5.9 3.81-23.7 2.32-23 7.45 7.86-3.15 21.8 0.784 25.5-6.99-0.251-1.11-1.81-0.923-2.49-0.464zm-1128-0.438c-8.81 0.674-21.1 20.2-6.74 18.7 5.73-3.45 8.48-12.6 6.74-18.7zm103 6c-2.92 2.21 2.35 1.3 0 0zm-86 4c-11.7 2.48-3.64 17-9.13 24.2-5.59 8.38 2.54 21 11.2 11.3 8.19-9.56 9.53-26.6 3.13-37-1.71-1.47-4.3-0.162-5.23 1.54zm1448-1c-15-1.15-28.8 7.44-43.8 6.1-14.6 2.11-28.7 6.62-43.1 9.56-10.4 8.08 1.45 21.2-0.105 31.7 2.98 22.2 0.676 44.6-0.161 66.8-0.026 13.1 4.33 25.7 4.44 38.8 0.561 16.5 7.96 31.8 7.73 48.4 0.625 23.2-2.25 46.4-0.116 69.6 0.619 8.44-11.6 6.03-7.61 15.4 2.96 16.2 8.66 32.6 5.22 49.3-4.12 13.9-0.02 28-0.397 42.1-2.18 13.6-2.55 27.6 1.12 40.9 1.4 12.5 3.07 24.9 2.59 37.5 1.07 12.4 6.91 23.8 8.6 36.1-5.11 14 12 19.2 19.7 26.9 8.06 9.27 20 11.6 31.2 14.4 18.7 7.86 39.2 11.8 59.5 10.8 7.75 0.71 29-5.75 14.7-13.3-8.71-0.641-1.33-10.2 2.85-2.77 14.4 4.41 6.35-14.6 6.48-21.7 1.98-14.1 1.3-28.5 0.399-42.7-5.23-12.9-0.088-26.2-1.39-39.4-1.02-14.7 5.06-29.3 3.52-44.1-0.817-19.2 0.501-38.4 1.73-57.5-0.491-19.2-2.83-38.3-0.848-57.4 0.852-16.1-3.05-32-1.79-48.1-0.839-12.4 1.3-24.6 1.24-36.9-1.44-13.6-4.75-27.2-2.83-41-0.144-20.3 0.702-40.7-2.45-60.9-3.21-22.4-2.41-45.1-2.21-67.7-2.48-13.6-19.2-8.77-28.8-10.8-11.8-1.54-23.8-2.73-35.5-0.277zm-383 1c-12.5 4.12 9.39 5.87 1.9-0.761-0.632 0.254-1.26 0.507-1.9 0.761zm9 0c-1.99 2.88 2.69-1.18 0 0zm-1037 1c-2.71 2.49 3.08 0.135 0 0zm121 4.94c-8.93 31.9-9.91 66.2-1.18 98.4 3.06 15.4 1.04 31.5-4.68 46-4.06 11.4 8.42 22.4 18.9 15.8 11.8-6.45 4.26-21.2 6.97-31.6 2.45-17.4-1.93-34.8-0.378-52.2 0.789-17 2.28-33.9 2.23-50.9 3.83-12.6 0.089-31.9-17.3-26.8l-2.39 0.563zm19.8-1.94c-2.82 3.13 2.76 0.599 0 0zm859 1.5c-9.03 9.5 20 5 5.9-1.46-2.05-0.0523-4.08 0.531-5.9 1.46zm-882 1.5 0.155 0.309zm871 1c-0.672 2.88 2.25-1.55 0 0zm-3 0c-4.25-0.921 2.04 3.25 0 0zm-781 2c-2.46 5.11 6.16-0.868 0 0zm783 1c1.42 6.94 10.5-5.4 0 0zm-6 0 0.555 0.139zm-1040 2c-8.43 6.16 10.3 18.5 4.39 4.35-0.853-1.91-2.34-3.68-4.39-4.35zm42 2c-2.39 3.84 3.51-0.73 0 0zm-64 2c-12.1 1.81 0.939 18.3 4.17 6.7 1.54-3.03-1.25-6.26-4.17-6.7zm181-32c-7.2 6.62-17 14.4-10.5 24.9-4.45 8.1-11.4 15-6.75 25.2-0.0223 15.1-12.5 29.3-4.77 44.4 6.86 12.1 1.48 24.6-1.18 36.8-3.25 8.36-3.66 22.1-9.66 26.7-6.51-8.62 2.39-20.1 2.18-30 4.14-15.2-3.87-29.6-5.27-44.1 2.18-13.2 12-27.9 2.87-40.5-6.63-9.83-23.1-9.13-28.4 1.69-3.78 9.63-17.7 15.3-14.6 27.1 7.6 10.3-4.5 20.8-3.65 31.7 0.243 14.1 1.26 28.1-1.72 42-0.404 12.2 2.02 24.3 0.93 36.3-3.08 13.6-15.9 1.18-12-7.94 1.74-13.1-3.17-26.4 0.478-39.3-0.0695-10.1-3.79-20.2-0.594-30.2 1.72-6.84 7.64-23.1-5.45-18.8-11 5.88-14.7 19.3-12.2 30.9 2.55 11.9-2.91 23.4-2.43 35.2 3.82 8.71 2.77 18.5 3.53 27.9-9.11 4.91-7.44 20 4.77 16.2 19 0.119 38.4 5.75 57-0.0343 14.3 1.43 15.8-13.6 14.4-23.4 7.84-8.21 14.2 4.08 9.94 11.2 4.24 12.6 16.2 0.518 24.5 2.27 17.8 1.92 3.66-18.2 9-27.7 3.56-16.2-2-32.1-6.58-47.5-2.98-25.7-1.37-51.7 2.2-77.3-3.3-11.1 9.06-23.8-1.93-31.5-1.33-0.857-2.74-1.58-4.18-2.21zm95.4 46.7c-9.78 6.8-1.79 20.6-4.69 30.3 0.758 18.9 7.59 37.2 5.59 56.2 2.55 10.7-2.55 26.2 7.81 33.2 8.11-0.755 25.8 1.57 25.3-10.5 0.0632-12.5-2.14-24.8-4.26-37.1-1.74-24.4 3.18-49.6-4.04-73.5-1.14-13-18.8-6.82-24.2-0.054zm1295-7.69c-2.77 6.84 4.7 10.3 2.16 1.7l-0.918-1.05zm-1565 1c-6.73 3.54 3.39 19.2 2.02 5.84 0.502-1.99 1.59-6.3-2.02-5.84zm17 0c-3.09 4.6 0.441 21.9 3.7 16.4-0.342-5.62-1.72-11.1-3.7-16.4zm-36 6c-2.01 6.25-17.6 17.2-3.86 19.5 6.26-2.06 14.4-18.9 3.86-19.5zm21 2 0.0847 0.254zm25 6c-3.07 3.35 4.6 2.19 0 0zm-23 3v0.204zm0 3c-5.83-2.16-6.04 11.9-5.62 15.6 6.81 5.52 12-12.7 5.62-15.6zm11 2c-2.64 7.35 7.61-1.26 0 0zm82 1c-2.71 2.49 3.08 0.135 0 0zm149 3c3.56 5.93 6.02-6.8 0 0zm-8 0c-8.94 7.98-13.9 19.5-11 31.4 0.509 20.1-1.26 40.2-0.176 60.4-5.6 11.2 3.84 23.3 15.7 16.2 9.55-6.29 2.16-18.3 3.26-27.3 0.117-12.3 2.27-25.3-2.78-37.1-1.67-12.7-4.55-26.4 1.19-38.5 1.99-5.69-1.19-9.12-6.2-5.19zm14 5c-0.477 4.02 3.32-1.88 0 0zm-290-2c-9.13 4.94 5.8 14.2 3.12 2.47-0.393-1.38-1.68-2.49-3.12-2.47zm289 4 0.155 0.309zm-257 3 0.155 0.309zm0 3c-4.46 7.78 9.48 2.71 0 0zm259 3c0.219 28.8 2.95 57.6 6.32 86.1-0.169-28-3.21-56.1-4.5-84-0.196-1.05-1.06-1.52-1.82-2.14zm-296 5c-0.366 11.6-16.5-4.31-18.8 8.42-7.84 7.57-15.9 14.9-22.5 23.5-7.01 2.62-10.1 18.4-0.553 9.32 11.1-9.09 14.6 13.8 23.2 6.25 7.37-9.47-3.8-21.5 3.17-31.1 11-9.11 12.4 8.47 18.6 12.1 14.4-1.19 4.15-15.4 1.64-22.2 0.384-2.91-1.15-6.86-4.73-6.34zm15.7-13.1c-2.21 6.27 3.86 22.7 9.54 18.2-1.12-6.97-6.56-12-9.54-18.2zm78.3 17.1c-1.02 5.79 5.96-2.15 0 0zm-2 3c-9.18 7.77-14.8 18.8-12.9 31-1.73 11.8 1.27 31.1-10.9 36.2-3.1-7.65 3.84-19 0.0529-28.3 2.16-15.4-16.5-7.85-10.9 3.47 8.46 12.1-15.6 18.1-8.41 29.9 7.3 9.2 5.83 20.3 2.07 30.4-5.89 8.66 7.42 23.6 11.7 9.89 1.56-8.54 8.35-7.69 11.7-1.17 4.35-1.49 12.3-0.698 14.5-4.87-15.5-4.82 8.95-12.8 4.56-21.8 0.201-13-3.9-26.4 0.708-39.1 3.06-14.9 3.51-31.1-2.07-45.5zm2 4c-2.71 2.49 3.08 0.135 0 0zm-81 9c-2.82 3.13 2.76 0.599 0 0zm-16 7c-0.0777 4.78 3.54-2.67 0 0zm944 2c-11.2 2.75-29.7-1.71-34.5 11.5 2.46 11-0.549 21.2-2.18 32 1.44 11.7 4.6 23 0.958 34.7-3.55 27.5-7.29 55.2-5.63 83 0.322 16.7-1.9 33.4 0.078 50.1-1.62 16.1-0.07 32.4 1.32 48.4-0.201 15.1-3.4 29.9-4.54 44.9 6.18 14.2 24.2 13.9 36.8 18.7 11.6 4.08 29.4 0.382 27-15.3-0.237-15.8 3.09-31.3 4.46-47.1 4.79-15.6-5.8-30.8-1.83-46.4 3.8-13.7 0.174-27.4-0.668-41 1.75-14.2 2.06-28.4 2.47-42.7 1.72-20.3 1.05-40.7-0.975-60.9-0.732-10.9-1.11-21.9 0.035-32.8-5.11-9.15-7.71-20-0.8-29 1.69-14.2-14-8.62-22-8.3zm-942 1c-2.65 3.45 4.44 0.209 0 0zm65 0c-1.83 4.5 4.37-1.67 0 0zm-5 2c-4.24 1.98 3.5 1.44 0 0zm532 10c2.51 4.29 4.67-3.24 0 0zm-1 1c-3.59 3.12 3.66-0.347 0 0zm-645 4c2.81 8.13 2.18 17 0.912 24 12.8 8.35 14.6-23 1.01-21.1-0.555-0.945-0.639-2.57-1.92-2.97zm1028 3c-1.55 4.57 4.1-1.57 0 0zm-867 4 0.155 0.309zm-145 1c-3.44 3.15 3.79 0.203 0 0zm73 5c-0.984 5.39 5.15-1.91 0 0zm967-0.5c-12.4 0.243-31.4 4.23-27.1 21 1.06 25.8 5.48 51.7 1.49 77.5-1.17 14.4-2.01 28.8-2.81 43.3 2.23 12.3 2.67 24.4-0.509 36.6-0.063 18.5 6.74 37.2 1.76 55.6-2.03 17.6-5.44 35.2-5.16 53 4.82 11.9 21.1 9.85 29.2 18.7 8.57 8.89 29.3 11.4 27-5.9 2.32-16.9-3.69-33.1-5.26-49.6-0.282-9.99 2.79-19.8 1.2-29.9-1.33-10.5-0.068-20.9 2.31-31.1 2.38-22.1-7.09-43.9-2.6-65.9 3.6-20.9 1.72-42-0.455-63-0.687-11.5-2.94-23.6-0.63-34.8 7.81-6.56 13.4-21.9-1.96-22-5.33-1.64-10.7-4.56-16.5-3.48zm-932 2.5c-2.71 2.49 3.08 0.135 0 0zm-37 1c-11.3 7.38-2.81 22.5-1.88 33 2.38 9.39-8.42 11.8-9.65 1.64-11.3-10.2-9.08 13-8.99 19.8-2.39 14.6 11.2 11.4 19.8 7.51 13.2 1.36 13.3-16.2 12.4-25.4-4.89-9.85-12.1-19.7-7.77-31.3 0.235-2.42-1.26-5.09-3.93-5.21zm37 3c-4.24 1.98 3.5 1.44 0 0zm699-2c-12.4 0.544-26.2 5.94-26.8 20.4-2.1 14.3-3.77 28.7-5.63 43-2.07 22.1 1.47 44.2 6.32 65.6 1.72 16.1-4.53 32.1-1.15 48.1 1.03 12.7-3.13 24.9-1.19 37.6-1.29 11.9-3.45 24.7 3.71 35.4 8 9.25 17.8 18.6 30 21.7 22.9 5.63 47.9 11.9 70.6 2.25 14.6-5.69 9.77-22.9 7.24-34.5-3.4-24.9 0.212-49.9-0.034-74.8-3.91-14.3 1.25-28.9-0.969-43.2-5.02-15.2-3.39-30.8-4.08-46.4-1.87-14.6 0.254-29.2-1.51-43.8-3.3-6.46 4.6-12.9 4.04-16-14.2 1.09-24.1-14.1-38.6-10.8-14-1.21-28-3.14-42-4.56zm260 2c-0.672 2.88 2.25-1.55 0 0zm-1100 2c-6.02 13.5-20.3 19.5-30.4 29.3-8.5 9.26-13.3 21.4-22.6 30-9.74 3.33-17.3 13.9-17.5 24 10.4 4.21 20.7-8.81 27.1-16.1 6.04-9.98 19.3-14.7 19-28 0.572-10.8 17.5-1.63 14.2-14.1 3.76-7.77 15.5-11.3 14.6-21.3-0.595-1.96-2.47-3.24-4.38-3.7zm8.09-9.96c-6.11 4.5-1.97 9.26 0 0zm133 15c-2.92 2.21 2.35 1.3 0 0zm-56 1 0.155 0.309zm1058 1.54c-13.5-2.62-31.8 1.72-38.8 13.9-0.554 10.3 3.67 20.3 3.24 30.8 0.457 16.8 0.222 33.7 0.41 50.5-2.69 11.5-4.57 23.3-1.63 35 2.46 17.4 3.04 35.4-1.51 52.5-1.79 13.8 3.49 27.9-0.68 41.5 1.69 13.7 8.09 26.7 6.57 40.9 1.36 11.5-7.3 27.2 0.187 36 6.94-5.85 16-9.19 23.7-1.31 20.9 10.2 44.9 12 67.9 11.2 11.9-5.83-3.14-19.3 1.48-28.9-0.83-16.6-4.7-32.9-3.71-49.7-1.15-12.9 0.776-25.4 3.92-37.8 0.115-15.2-3.26-30.7 0.722-45.8 3.05-23.7 6.17-47.8 4.38-71.6-2.64-13.6-2.47-27.6-3.79-41.3-1.02-8.65 2.37-23.9-11.2-22.9-11.7-2.21-19.3-13.2-31.5-14.3-6.47-1.1-13.7-2.03-19.7 1.29zm-649 4.46c2.45 8.04 9.71-6.05 0 0zm844 1c-3.22 14.6-2.16 29.8-3.75 44.6 0.875 27.9 8.48 56.2 0.982 83.8-2.22 13.7 2.19 27.6-0.796 41.3 1.32 31.9 2.29 63.9 0.464 95.8 0.111 14.2-0.348 28.4 0.808 42.5 4.08 17.6 21.6 26.6 37.4 31.9 10.5 7.2 22.6 2.08 34 3.34 9.27 8.95 22.9-1.72 18-13-2.27-25-1.59-50.1-3.86-75.1-1.38-22 1.8-44.2-1.32-66.1-3.33-18.7-0.415-37.9-4.45-56.5-2.83-16.8-3.8-34.2-0.091-51 2.26-19.2-2.7-38.2-2.85-57.3 4.16-10.8 0.069-26.8-14.4-21.1-11.7-0.5-23.4 0.134-35 1.18-8.66 0.415-16.7-3.88-25-4.29zm-854 1c1.32 3.61 2.24-3.05 0 0zm-6 2c-6-1.78 1.73 7.44 0 0zm730 1 0.155 0.309zm-465 5c-12.2 4.75-27.9 13.2-24.5 28.9 3.42 13 5.58 26 7.18 39.3 2.86 15.3 4.33 31.2 2.71 46.7-2.34 12.3 0.461 25.1-3.36 37.3 0.0478 13.9 4.77 27.3 3.87 41.3 2.35 9.93-3.66 25.9 6.87 31.5 11.2 0.637 20.5 7.07 31.3 9.52 10.8 0.186 24.2 10.7 33.2 0.928 2.98-12.4-2.49-25.5 0.516-38.1-1.3-12.5-0.151-24.9 2.79-37-1.89-13.7-3.08-27.2 0.649-40.7 0.262-16.2-7.41-31.3-7.09-47.5-1.43-19.1-1.9-38.7 3.15-57.4-0.858-13.1-16.9-15.9-27.5-16.5-9.64-0.819-21.1-4.24-29.8 1.7zm-286-2c-22.3-3.49-41.8 11.8-63.8 11.9-16.3 2.28-32.1 8.45-48.8 8.03-14.4 2.5-28.7 6.88-43.4 7.24-16.9 3.51-34.6 3.01-51 8.78-15.9 3.12-32.3 4.16-48.5 3.22-14.2-2.8-29.3-3.39-42.6 3.18-10 2.76-26.6 1.49-30.1 13.8 0.353 13.3-13.8 9.76-19.6 16.5-4.63 8.9-10.3 17.7-8.63 28.2 1.77 11.6-2.01 23.5 0.772 34.8 0.256 7.96 21.1 8.9 16.5 4.36-13.1-3.5-7.61-20.2-8.29-30.1 1.13-9.19-2.08-26 11.3-26.6 13.4-3.14 17 12.3 12 21.9-4.04 10.9-1.55 22.5 0.324 33.5 4.35 13.5 16.1 0.0211 10.6-8.76-1.93-16.4-4.57-33.4-0.222-49.7-0.915-8.69-14.3-21.8 1.41-24.4 10.5-0.702 21.7-4.16 31.8 0.354 6.57 4.71 11.3 7.16 17.3-6e-3 9.15-4.33 21.4-17.4 30.4-5.93 6.98 9 19.9 5.9 28.2 13.6 12.1 7.02 26.7-1.24 38.9 4.84 3.53 8.65 21 11.6 16.9-1.64-5.74-12.6 8-18.4 18.2-19.4 13.7-2.33 27.1-3.95 39.7-9.95 13.1-6.65 25.5-1.06 37.9 3.62 12-2.14 22.2-11.7 35.6-10.6 13.4-0.254-1.31-20.2 11.8-21.1 8.27 3.21 23.6-10.3 9.89-12.4-1.65 0.393-3.18 1.25-4.36 2.49zm-111 1 0.155 0.309zm-173 1 0.0847 0.254zm1 3c-3.14 4.57 5.03 3.24 0 0zm1052 0c-7.12 4.73 0.344 24 5.69 11.2 0.647-4.35-1.08-9.8-5.69-11.2zm-297 3c-3.94 19.7 1.38 39.9-1.02 59.7 1.65 15.3 8.55 30.7 3.84 46.2 0.011 12.8 5.4 25.5 0.242 38.1-2.72 14.1-1.1 28.3-0.411 42.5 3.57 15.5 2.86 31.5 5.52 47.1-2.49 15.2 23.7 18 20.9 1.23-0.88-13.3 2.34-26.4 1.35-39.7-0.271-14.4 0.99-28.7-1.64-42.9-0.675-14.9 0.66-29.8 0.106-44.8-0.363-20.8 0.7-41.7 3.67-62.3 0.858-12.5 0.035-25.2 3.73-37.3-2.56-14.3-20.6-5.83-30.3-10-2.15 0.0727-4.36 0.762-5.96 2.24zm-452 0.211c-8.18 5.71-25 8.54-22.5 21.6 2.58 11.8-2.61 23.7 0.793 35.2 5.99 12-0.155 24.3-1.22 36.6-4.92 11.5-3.97 23.3-0.721 35.2 1.61 11.2-8.29 27.1 3.91 34.6 11 1.44 21.8 4.86 30.3 12.1 14.1 1.5 8.22-15.7 8.29-23.7 4.06-11.7-2.4-23.7 2.3-35.1 4.45-9.37-1.2-19.2 1.13-28.9 1.95-11.4 5.26-23.1 2.4-34.7 1.41-13.3 1.31-26.9 3.09-39.8 7.85-12.1-8.01-15.2-16.9-14.7-3.69-0.104-7.45 0.262-10.9 1.66zm947-1.21c-2.92 2.21 2.35 1.3 0 0zm-711 7c-0.605 3.01 2.39-1.6 0 0zm537 0c-2.35 1.7 2.65 0.99 0 0zm27 1c-4.29 10.2 16.4 9.89 6.38 0.452-1.84-1.23-4.4-1.64-6.38-0.452zm-1113 1c-4.53 2.22 4.16 2.87 0 0zm-173 0c-5.76 0.0522 3.24 4.46 0 0zm255 3c-4.24 1.98 3.5 1.44 0 0zm-240 4c-4.21 0.492 2.16 1.68 0 0zm154-1c-4.58-0.987 2.25 3.59 0 0zm367 1c0.339 5.45 4.18-3.15 0 0zm6 1c-4.24 1.98 3.5 1.44 0 0zm692 0c-0.488 4.39 3.56-2.67 0 0zm201 2c1.73 21.6 2.23 43.3-0.471 64.9-1.39 15.4 3.92 30.3 3.95 45.7 1.08 18.5 1.31 37.1 3.81 55.5 0.073 15.3-2.56 30.5-0.299 45.7 2.6 21.7 0.568 43.7 3.13 65.4 2.26 10.3-3.5 25.4 8.99 30.5 13.3 6.07 27.8 8.49 42 11.7 12-0.635 26.6 2.4 36.9-3.12 3.48-8.94-5.71-16.8-5.08-26-1.7-17.1-2.52-34.2-5.27-51.2-2.95-22.7-0.861-45.6-2.1-68.4-0.278-16.6 6.87-34.3-1.94-49.9-4.97-20.7 1.62-42-2.23-62.8-2.34-12.4-2.58-25.2 1.5-37.3 1.62-9.35-11.7-3.02-14.5-11.4-8.1-4.98-18.5-1.37-27.1-6.03-12.4-4.88-26.2-6.95-39.2-4.05zm-1420 0 0.155 0.309zm-6 1c-11.3 10.3-24.3 18.6-36.6 27.3-4.32 8.52-16.4 13.9-17.1 22.8 9.16 2.95 20-5.01 27.6-9.54 2.47-9.27 5.83-15 14.7-18.9 5.83-7.07 23.3-5.95 15.6-19.1-1.03-1.38-2.62-2.28-4.31-2.51zm1225 1c-2.39 3.84 3.51-0.73 0 0zm-1160 1c-3.83 7.01 7.76 2.56 0 0zm49 1c-2.82 3.13 2.76 0.599 0 0zm-45.3-13.1c-7.95 4.9 6.48 24.1 2.06 8.05-0.524-2.72-0.857-5.53-2.06-8.05zm68.3 14.1 0.155 0.309zm1088 0 0.085 0.254zm-1186 1 0.155 0.309zm74 0 0.155 0.309zm1193 0c-6.47 6.29 11.3 4.48 1.26-0.354zm-1366 1 0.155 0.309zm175 1c-2.59 3.78 4.28 3.25 0 0zm1392 0c1.11 4.15 2.51-3.18 0 0zm-1568 1 0.155 0.309zm591 2c-10.1 2.03-17.4 12.4-14.7 22.6 1.23 12.7-5.42 24.8-3.58 37.4 4.98 11.6-3.73 21.7-2.61 33.2 2.91 14.1-2.92 28.4 0.575 42.3 6.13 9.01 21.1 3.83 28.1 13 14.4 1.59 11.3-17.1 11-26.1-2.02-14 5.1-27.6 1.26-41.2-8.09-11.8-7.43-24.3-9.91-37.8-5.94-13.3 3.54-27 0.0521-40.4-0.685-5.17-6.84-6.35-10.2-2.95zm135-1c-8.95 4.15-11.9 15-8.42 23.8 0.695 11.9 4.73 23.3 5.58 35.1-1.42 11.5-0.531 22.9-0.394 34.3-0.337 10.9-1.63 22.3 2.46 32.7 0.77 11.8 0.71 23.9 0.485 35.5 6.7 8.78 20.3 5.75 28.4 13 8.6 9.68 26.1 4.66 22.9-9.64 1.94-14-2.72-27.2-3.67-41.1 1.7-9.7 3.22-19.5 2.91-29.4-0.286-13.4 2.72-26.8-0.828-40-3.76-15-4.2-30.5-6.36-45.8-2.38-14.9-18.4-5.35-28.3-9.15-4.96-0.914-9.84-0.433-14.8 0.554zm841-1 0.155 0.309zm-1569 1c-4.54 4.03 6 2.07 0 0zm646 3c0.887 4.48 5.25-1 0 0zm722 0c-5.94 1.18 4.38 4.67 0 0zm-1238 1c-2.67 3.86 5.55 1.09 0 0zm514 0v0.204zm-525 0.926 0.562 0.0551zm372 0.0735c-11.8 2.13-21.5 11.7-21 24.1-3.04 16.2 0.56 32.8-3.18 48.9-1.83 17 4.67 34.5-1.09 51.2 2.45 11.5 18.1 5.36 26.1 9.97 12.3 4.74 17.9-8.34 14.4-18.3-0.275-11.8-1.66-23.4-4.14-34.9-2.44-14.9-1.49-29.8 2.66-44.4-0.194-10.8 3.48-23.8 0.457-33.3-4.38-2.54-9.88-0.69-14.3-3.2zm-493 1 0.155 0.309zm653-1c-3.81-0.52 2.12 2.15 0 0zm-555 2c-2.3 5.53 6.71-0.178 0 0zm10 0 0.0847 0.254zm518 0c-2.9 1.58 3.21 1.49 0 0zm-5 2c0.662 3.86 2.36-2.91 0 0zm-511 1c0.104 3.55 2.55-2.31 0 0zm566 1c-3.68 23.7-1.97 47.9-4.72 71.7-1.17 21.9 2.43 43.9-1.63 65.6-1.87 14.4 15.3 16.1 25.3 19.3 8.29 4.9 23.6 5.85 23.4-7.45-0.0917-13.7-0.197-27.6-4.14-40.9-2.58-21 0.13-42.2-1.23-63.1-1.18-10.3-4.64-20-6.03-30.2 5.05-9.95-1.88-19-13.3-16.8-5.91 0.469-11.8 0.96-17.7 1.82zm-568 0c-2.82 3.13 2.76 0.599 0 0zm320 1.88c-15.8 2.52-6.68 20.9-8.9 31.1 1.26 12.4 1.11 24.6-1.85 36.7-1.39 16-0.898 32.4-5.58 47.9-4.78 9.07 4.44 32.2 14.4 19.7 0.718-7.91-16.5-9.47-7.11-18.1 11.8-7.93 19.4 10.5 31.5 9.02 11.6-2.74 7.93-18.7 8.25-27.7-1.68-14-2-28.2-0.242-42.2 0.879-13.2 0.171-26.5 2.7-39.5 2.04-12.5-10.7-20-21-13.4-5.84 0.328-5.35-10-12.2-3.63zm247-0.875 0.155 0.309zm-579 1c1.15 0.288 0.76 0.19 0 0zm523 1c2.59 1.99 0.122-3.46 0 0zm-430 2c-0.0777 4.78 3.54-2.67 0 0zm-5 1c-2.92 2.21 2.35 1.3 0 0zm-13.4 0.5c-7.35-1.77-26.2 4.75-12.3 11.1 6.81 6.51 10.9 0.833 14.7-4.25 10.2 2.29 8.49-8.78-0.306-7.61l-2.08 0.774zm-120 1.5c-5.59 7.57 12.4 3.42 1.28-0.0599-0.421-0.168-0.856 0.0419-1.28 0.0599zm190 2 0.155 0.309zm1079 0c-1.37 8.29 10.9 1.82 0 0zm-1050 2.88c-10.8 3.8-13.1 15.8-10.2 25.5-0.0287 15.8-1.76 31.7 1.33 47.3-0.162 11.8-2.05 28.1 11.3 33.7 13.9 7.52 13.8-12 6.82-18.9-6.21-11.8 4.38-23.9 2.37-36.4-0.531-14.7-1.4-29.5 2.14-43.9-1.07-5.82-8.32-10-13.8-7.32zm124-1.94c-12.9-1.14-11.9 12.9-9.97 21 2.76 10.7 0.289 21-0.369 31.7-1.67 12.9 3.49 25.5 0.515 38.3-3.31 11.6-0.895 28.6 14.7 27.4 11.4-4.35 4.26-22.1 6.92-31.9-2.19-13.8 3.28-27.2 2.26-41-2.85-14.5 0.928-29.6-3.77-43.8-2.26-3.39-6.97-2.77-10.3-1.62zm925 0.0625c-4.47 4.48 6.54 1.91 0 0zm-698 4c2.31 14.6-2.94 30.5 4.92 44 4.92 15.2-1.31 31-0.355 46.5 1.32 11.8-4.68 27.8 6.31 36 8.15 3.82 28.6 10.3 27.2-5.13-1.49-13.2 0.949-26.4 0.277-39.7 0.0728-16.7-0.0696-33.5 1-50.2-3.16-10.5 7.51-28.8-8.19-32.6-10 2.2-20-1.98-29.1-0.393zm-572-1c-1.83 3.05 3.65 0.183 0 0zm121 2 0.155 0.309zm1166 0c-4.21 0.492 2.16 1.68 0 0zm-1191 14c-0.246 9.44 2.75 21.5-7.43 26.3-1.2 10.7-2.85 24.9 4.35 33.4 10.6 7.23 17.9-5.13 12.4-14.2-2.36-14.4 0.965-29 1.24-43.3-1.48-4.3-7.36-4.9-10.5-2.17zm-150 1c-2.39 3.84 3.51-0.73 0 0zm6-1c-7.94 0.126 3.6 4.01 0 0zm165 2c1.15 0.288 0.76 0.19 0 0zm-163 1c0.823 4.52 3.33-3.34 0 0zm216 2c2.87 13.2-1.32 26.8-0.834 40-1.31 9.7-9.83 27.5 4.15 31.1 13.6 1.2 11.2-15.4 12.9-24.3 0.661-11.8-4.58-23.8-0.235-35.4-0.0268-8.14-9.15-11.3-15.9-11.5zm1105-2c-12.4 6.02-32.2-2.95-39.1 12.9-4.63 14.2-0.866 29.6-4.38 44.1-3.3 14 3.96 28-0.94 41.8-4.34 18-0.205 36.5-0.818 54.8 0.972 14.6 3.3 29.2 2.79 43.8 0.702 14.8 16.3 16.8 26.9 21.5 11.5 8.5 25.6 9.88 39.2 11.8 11.1 3.75 24.1-1.24 34.4 3.23-3.26 13.3-24.2 8.86-35.3 10.2-15.4-0.148-31.5-0.912-45-9.34-12.4-6.72-27.7-12.8-40.2-2.93-11.6 5.58-23.7-0.0513-35.8 0.36-14.3-0.173-29.2-2.87-40.5-12.3-8.88-5.66-17.6 5.77-27.3 0.192-4.98 2.45-14.6-3.39-16.2 0.984 6.13 5.29 16.5 4.12 24.2 7.27 18.4 5.09 36.2 12.7 55.3 15.3 28.6 5.87 58.1 6.04 86.6 12.9 28.1 4.24 56 9.58 83.6 16 20.3 3.39 40.3 8.28 60.8 10.3 16.7 0.459 33.3 2.12 49.4 6.34 17.6 4.15 35.4 7.26 53.3 9.38 16.7 4.54 32.9 12.8 50.7 11.9 23.4 2.06 46.5 7.85 69.8 10.1 10.6 5.11 21.6 8.61 33.2 10.5 17.8 5.9 37.1 4.81 54.9 10.8 15.8 6.91 33.1 7.19 50 8.86 5.63-0.523 24.9 8.93 18.2-2.99-12-0.559-24.2-6.44-36.6-9.05-11.4-1.34-20.7-12.6-32.8-7.24-7.1-1.7-12-12.9-20.3-7.49 3.59-5.54 17.5-11 5.1-16.7-12.3-3.21-26.9 5.82-33.6 15.2-6.96 4.93-18-11.5-21 2.13-10.8-6.3-22.8-10-35.2-10.1-15.4-3-29.9-8.94-44.4-14.7-6.15-8.93-18.5-11.6-26.1-15.4-2.12-17.5-18.6-4.71-29-5.83-12.5-1.03-24.6-5.83-37.3-5.58-11.7-0.974-23.6-15.4-34.9-6.62-9.04 4.2-19-0.0842-28.5 0.99-12.9 0.151-25.8-1.76-38.2-5.08-14-0.982-21.5-14-29.7-23.2-3.87-11.8-1.24-24.6-2.43-36.8-0.543-14.6 1.38-29.1 1.77-43.5-1.74-12.5 0.158-25 0.583-37.5-0.678-18.2-3.05-36.4-1.84-54.7 0.206-15.2 0.154-30.6-3.2-45.6 2.81-13.9-12.7-16.6-22.6-13.9-11.6-1.44-22.7-5.6-34.4-5.68l-1.55-0.545zm-1092 3 0.155 0.309zm-97 1c-0.326 3.52 3.31-1.36 0 0zm230 0c-5.64 6.77 7.56 19.8 5.89 5.78-0.332-2.9-2.23-7-5.89-5.78zm-225 3c-10.9 1.88 2.78 18.8 3.33 4.86-0.142-2.03-1.31-4.15-3.33-4.86zm374 2c-4.67 8 8.2 8.4 0 0zm-130 1 0.0847 0.254zm-277 4c-3.6 8.32 7.94 4.53 0 0zm235 1c0.4 12.4-2.69 25.3 4.88 36.1 2.03 12.9-2.64 26.5 2.86 38.8 4.87 4.98 15.8 21.2 20.8 8.73 0.682-9.4-4e-3 -18.9 1.14-28.3 0.118-14.3-1.23-28.6 0.0695-42.8-4.57-11.9-20.1-0.156-26.9-10l-1.43-1.23zm23 0c-0.0777 4.78 3.54-2.67 0 0zm-300 2 0.155 0.309zm58 0c-9.55 4.47 1.46 13.5 1.69 2.24l-0.517-1.34zm63.2-8.65c-2.86 14.2-1.79 28.8-1.73 43.2 2.66-13.6 2.18-27.7 1.89-41.4zm-121 11.6 0.155 0.309zm40 0c-6.62 8.47 8.62 11.4 0 0zm-89 2c-0.0578 4.43 3.9-2.28 0 0zm18 0c0.42 3.77 2.37-2.62 0 0zm59 0c-6.73 3.56-9.6 24.7 0.635 18.5 3.07-5.87 0.0371-12.5-0.635-18.5zm228 3c-7.13 11.8 8.16 21.2 6.81 32.8-3.92 11.8 0.342 22.2 5.91 32.2-1.07 9.95 15 12.9 11.1 1.33-5.68-9.35-3.09-19.9-4.14-30.1-3.65-11.4-9.25-21.9-11.6-33.8-1.58-2.83-5.2-3.45-8.05-2.38zm1262-1c-4.24 4.4 5.91 2.5 0 0zm-1287 1c-5.95 12-10.3 26.7-5.11 39.7 5.41 10.1 0.0101 26.4 13 31 8.19 4.64 16.6 0.316 11.8-9.32-3.37-11.1 6.3-22.6-1.58-32.8-7.71-7.13-10.7-16-13.3-25.8-1.11-1.56-2.91-2.52-4.78-2.81zm-174 1c-6.44 2.3 4.2 7.32 0 0zm3 10c-6.06 4.48-5.58 24.8 3.34 13.6 1.14-4.76-0.906-9.58-3.34-13.6zm-88 10c-17.6 3.85-0.229 19.3 9.36 20.5 12.1 3.14 17-15.5 4.05-17.7-4.26-1.69-8.89-2.25-13.4-2.86zm25 11c-8.71 10.4 21.5 12.6 16.7 3.85-4.93-3.49-11.2-1.76-16.7-3.85zm95 0c-1.85 4.36 4.7-0.0743 0 0zm82 1c-3.04 4.73 5.54 2.53 0 0zm-73 1c-4.24 1.98 3.5 1.44 0 0zm44 1 0.155 0.309zm-123 2c-3.89 8.63-1.42 33 11.1 25.7 1.12-8.07 12.3-20.7 1.24-24.9-4.07-0.757-8.27 0.248-12.3-0.715zm152 2.66c-11.8 4.69 7.92 21.3 6.92 6.59-0.523-3.31-3.29-6.8-6.92-6.59zm-129 1.34c0.662 3.86 2.36-2.91 0 0zm-36 1c-2.39 6.12 7.32-1.08 0 0zm33 1c-3.47 0.571 1.7 2.13 0 0zm6 0c1.77 5.52-0.803 26.7 8.66 15.8 10.1-6.94 5.89 7.9 5.49 12.9 4.19 5.09 10.9-2.37 9.63 7.3 1.72 12 15.1 9.6 15.8-1.27 8.6-13.3 16.5 3.2 10.4 12-4.58 11.4 13.1 17.2 13.1 3.42-0.956-8.73 6.6-17.3 13.6-8.24 8.66 6.69 14.6-13.2 24.4-4.62 4.43 7.23 15.8 13.9 23.1 6.47 7.37-7.19 0.973-14.5-7.56-13.3-8.31-4.97-17.2-8.21-27-7.91-10.8-0.765-19.2-9.72-30.5-7.25-11.3-0.688-21.3-6.88-32.2-9.87-9.78 0.395-17.7-3.74-27-5.38zm-8 4c-2.82 3.13 2.76 0.599 0 0zm63 10c-0.262 3.09 2.14-1.79 0 0zm340 7 0.155 0.309zm-391 2c-0.958 4.49 4.57-1.43 0 0zm-37 2c-8.78 4.81-2.57 21 6.69 20.4 5.21 2.09 8.98 16.1 12.4 5.42-6.52-8.19-10.9-19.3-19.1-25.8zm269 0c-3.55 2.05 3.69 1.74 0 0zm-31 1c-0.262 3.09 2.14-1.79 0 0zm-241 1 0.155 0.309zm35 1c2.12 7.12-5.06 26.1 7.62 22.8 3.88-7.59-0.935-17.3-6.91-22.4l-0.559-0.326zm241 0 0.155 0.309zm-238 1c-0.262 3.09 2.14-1.79 0 0zm385 3c-7.36 11.7-27.6-3.69-31 9.12 4.33 11.7 19.3 4.33 28.4 6.76 11.2-1.97 24 3.95 33.8-2.88 2.47-10.8-17.3-8.29-24.4-11.9-2.25-0.451-4.51-0.831-6.79-1.09zm-38 5c-3.43 5.79 5.11-0.677 0 0zm-215 1c-4.91 8.15 10.1 13.3 5.1 3.1-1.04-1.58-2.85-4.21-5.1-3.1zm13 1c-3.32 7.36 6.73-0.605 0 0zm-50 2c1.15 0.288 0.76 0.19 0 0zm217 1 0.155 0.309zm33-1c-2.34 5.91 10 1.03 0.241 0.791l-0.189-0.619zm-322 4c-4.3 12.5-0.232 26.9 6.88 37.5 16.3 4.27 6.39-16.2 6.42-24.7-0.864-6.53-5.75-14.1-13.3-12.8zm130-3c7.05 2.81-11.3 4.52 0.301 6.07 11.5 3.06 22.9 3.94 34.5 3.08 4.96 3.04 21.4 4.93 16.8-3.91-9.11-2.95-19.3-1.36-28.8-2.16-8.24 2.02-15-4.62-22.8-3.08zm281 4 0.155 0.309zm2 0c1.72 6.62 11.5-2.57 1.66 0.234-0.554-0.078-1.11-0.156-1.66-0.234zm29 2c3.27 6.82 22.7 2.5 9.25-1.24-3.13-0.303-6.27 0.352-9.25 1.24zm37-3c-14.7-1.68-5.3 21.2 4.46 9.46 0.544-3.75-4.67-5.64-4.46-9.46zm-17 5c2.33 6.91 7.96-5.58 0 0zm-272 0 0.155 0.309zm24 0c0.946 2.85 1.67-2.51 0 0zm-22 1c-1.28 3.25 2.86-1.37 0 0zm28-1c-6.26 4.47-23.6 12.9-8.11 17.8 11.7 1.18 23.7 3.86 35.5 1.95 7.06 0.137 21.8-7.51 8.57-11.1-11.4-2.11-25-0.276-33.5-8.75zm-31 3c-3.88 10.6 18.4 4.76 4.46 0.516-1.49-0.198-2.99-0.214-4.46-0.516zm-137-5.53c-8.09 2.92 3.12 15 0.47 2.34zm-90.1 9.53c-6.61 8.9 13.7 26.8 13.7 11.8-2.67-5.63-8.18-9.35-13.7-11.8zm142 2.6c5.58 3.58 19.5 1.59 19.6-2.4-6.55 0.606-13 2.44-19.6 2.4zm36.5-1.6c8.74 9.58 23.2 12.1 35.5 11.3 10.3-2.44 6.21 5.29 6.31 11 6.69 4.51 25 3.03 24.1-7.85-4.36-11.5-18.9-7.93-28.2-12.4-10.9-1.27-21.9-3.88-32.9-3.06-1.62 0.208-3.23 0.543-4.8 1.02zm150 0 0.155 0.309zm233 11.1c31.8 8.14 65.1 9.6 96.2 20.6 22.5 8.18 46.5 10.3 70.1 13.1-8.52-6.15-19.9-4.37-29.5-7.62-12.9 0.366-14.6-15.1-24.7-17.8-11.1 2.58-22.5 0.286-31.8-6.41-9.12-8.34-20.9-9.63-28.7 0.862-11.8-0.639-24.2-5.24-36.2-7.16-12.2-2.75-29-9.44-39.1-4.94 3.68 8.69 16.4 5.83 23.8 9.43zm-469-10.1c-4.16 3.74-4.92 15-0.284 5.16 0.607-1.63 0.842-3.47 0.284-5.16zm220 0c1.02 3.66 2.62-2.84 0 0zm5 0c-5.19 10.6 19.1 1.51 4.45-0.0399-1.48-0.043-2.97 0.031-4.45 0.0399zm-185 1c-14.4 1.98 3.65 18.5 3.07 2.94-0.439-1.41-1.61-2.6-3.07-2.94zm170 1c2.35 7.08 9.42-6.57 0 0zm5 2c-2.22 4.29 3.23-1.97 0 0zm-59 4c-2.82 3.13 2.76 0.599 0 0zm-95.2 10.8c9 3.45 19.4-1.34 27.7-4.53-7.41-0.561-17.7 3.19-26.3 4.26zm253-6.37c0.355 13.4 17.8 11.9 27.2 10.8 9.09 0.35 30.1-5.13 30.7 7.26-3.87 7.31-24.2 5.67-21.6 12.1 14.5-3.04 29.3-5.19 44.2-5.2 9.96-7.97-6.99-14.6-13.4-12.2-7.02-7.24-16-7.74-25.4-7.47-13.9-1.37-27.8-3.65-41.7-5.35zm-404-0.421c-2.79 2.63 3.68 0.766 0 0zm252 0 0.0847 0.254zm2 1c2.14 4.68 3.84-4.1 0 0zm-146 1c-0.0777 4.78 3.54-2.67 0 0zm3 0 0.155 0.309zm2 0c-11.6 8.59-5 25.2-6.82 37.3 4.45 11.8 9.77 24.1 16.1 34.2 7.05-4.49-2.91-17.4-0.414-25.2 4.07-9.49 2.24-19.8-0.789-29.4-1.21-7.15 6.9-23.1-8.1-17zm-111 2c-0.546 4.64 4.54-1.92 0 0zm82 0c-6.11 7.95-10.4 17.6-2.67 26.1 11.7 7.97-7.17 15.7 2.64 24.2 4.26 7.05 16.1 6.81 11.4-3.35-4.99-10.6 0.227-21.8-2.92-32.7-2.31-4.27-0.788-16.9-8.45-14.3zm239 1c-13.3 3.91-27.6 1.4-40.9 5.22-8.02-4-23.4 4.11-11.1 10.7 11.5-2.91 22.1 6.32 33.1 0.732 12.6-6.93 27.4-3.47 41.1-5.25 6.25-0.0641 24.8 4.28 18.4-7.49-9.41-0.983-19.4-4.93-29.1-2.38-3.73 1.34-8.47 1.16-11.6-1.53zm-116 2.5c3.3 4.52 3.21-5.72 0 0zm-18.1 0.5c-6.96-3.45-25.6 7.39-11.2 10.8 9.48-0.296 23.4 2.41 29-6.82-1.98-8.91-11.8-5.87-17.8-3.95zm-85 1 0.155 0.309zm106 0c0.282 4.56 3.45-2.64 0 0zm-159 2 0.155 0.309zm92 0c-9.17 6.93-6.73 19-7.67 28.8-0.855 3.52-1.26 14.9 0.994 5.21 0.538-13.4 9.86-24.6 20.5-28.2-3.83-3.29-9.25-4.04-13.8-5.82zm-39 1c-3.44 3.15 3.79 0.203 0 0zm-54 3c-2.92 2.21 2.35 1.3 0 0zm14.5-24.8c-2.41 6.28-0.583 21.9 3.71 21.6-0.437-7.32-2.54-14.4-3.71-21.6zm198 25.8c-0.435 3.82 2.51-2.25 0 0zm-198 2c-1.42 4.77 3.95-1.74 0 0zm425 3-497-436 497 436zm5 0c0.0871 8.43 12.4-3 1.25 0.124l-0.644-0.064zm25 1c-0.21 4.5 3.92-2.21 0 0zm71 2c9.55 8.56 24.2 11.3 36.1 13 8.66-13-16.8-8.85-24.8-10.8-3.84-0.35-7.69-0.965-11.3-2.26zm8 1 0.155 0.309zm-393-3.67c-8.41 2.01-15.4 17.5-2.48 16.9 4.66-4.25-0.568-11.9 2.48-16.9zm566 4.67c-16.6 7.46 14 20.7 11.6 7.68-3.92-2.43-7.67-5.16-11.6-7.68zm-586 3c2.07 6.81 6.78-3.97 0 0zm-142 1c1.04 11.2-2.68 31.5 13.3 32.6 13.7-4.1 4.02-17.7-3.28-23-2.91-3.6-5.85-7.42-10.1-9.57zm173 3c-0.107 9.22-3.84 17.6-5.71 25.8 1.85 12.7-1.42 25.3-0.954 38-0.233 18.6-2.89 37.3 0.93 55.6 0.752 11.7 11 24.1 23 23.5 8.87-7.41 4.32-20.9 3.14-30.7-3.97-11.8 3.59-22.8 3.67-34.6 1.75-13.7-4.21-27-1.51-40.6 0.645-9.3 3.5-20.2-2.17-28.4-5.35-5.58-13.6-5.86-20.4-8.7zm284 1.5c-18.7 5.36-38.7-1.5-57.4 4.59-8.22 13.1 15.4 10.4 22.6 11.8 12.2-3.45 23.9-2.71 35.9-0.596 11.2-6.49 23.7-4.5 35.4-7.73 9.62-8.99-11.7-8.97-17.5-7.68-6.65 2.36-13.1-1.89-19.1-0.357zm-246-0.5c0.492 5.49 3.93-3.18 0 0zm41 1c-13.1 5.93 9.58 17.7 5.74 4.38-1.15-2.17-3.2-4.12-5.74-4.38zm-127 1c6.97 12.3-3.38 26.4 2.07 39.3 3.28 15.4 7.2 31.2 4.02 47-1.67 9.64 7.95 28.6 18.8 20.7 3.36-8.97 2.58-19.1 2.2-28.6-0.817-10.7-2.06-21.9 2.16-32-1.26-12.2 4.73-29.3-3.34-38.4-8.69-2.05-16.9-11.6-25.9-8.09zm91 0c-10.6 4.41-3.21 17.6-5.12 26.1-1.07 16.3-0.415 32.7-1.04 49-1.43 15-2.71 30.1-0.279 45-0.276 11.3-8.43 25.1 1.25 34.6 6.89 9.87 20.1 3.12 14.8-8.07-5.46-27.8 3.14-55.7 5.93-83.3-1.59-12.8-1.34-25.8 3.2-37.9 3.63-7.57 10.3-25.9-4.15-25-4.79 0.37-10.1 2.32-14.6-0.464zm376-2.52c0.875 7.96 23.8 2.88 9.19 1.37-3.07-0.425-6.17-0.658-9.19-1.37zm252 2.52c-7.17 10.9-22 9.66-31.8 16-1.92 9.69 16.4 5.71 22.8 10.2 17.4 5.35 35.5 8.67 53.7 7.96 21.9-0.15 43.9 1.49 65.3 6.42 11.1-0.423 25.7 8.27 34.3 1.32-7.12-6.17-19.3-8.01-27-15.6-9.45-3.45-20-6.76-29.9-2.92-18.3 3.25-33.7-10.1-51.1-12.6-10.1-1.12-26.9 13.5-32.6 0.499-0.404-3.83 1.54-10.3-3.81-11.3zm-556 1.06c-9.82-5.83-19 14.3-4.08 9.65 8.7-4.2 22.4 2.92 28.1-5.77-4.35-8.88-16.3-4.24-24-3.88zm327 0.938c-5.71 8.73 16.3 6.41 5.03 0.873l-2.47-0.68zm-116 1c3.77 5.75 11.3-2.26 0 0zm-234 1 0.155 0.309zm3 1c1.15 0.288 0.76 0.19 0 0zm374 0c-8.07-3.73-13.4 5.18-3.14 6.18 13.4 5.01 27.9 6.43 42.1 6.75-1.82-7.28-15.9-5.6-21.9-10.3-5.57-1.42-11.3-2.06-17-2.59zm-550 2 0.155 0.309zm172 1c2.4 5.74 4.73-4.74 0 0zm88 1c4.21 5.31 18.6-3.39 5.87-1.43-1.97 0.441-3.87 1.11-5.87 1.43zm5 5c6.3 5.49 7.55-7.93 0.557-0.502l-0.481 0.433zm-278-2 0.155 0.309zm613 4c5.31 6.66 19 11.2 25.6 5.93-2.43-9.34-18.2-8.32-25.6-5.93zm108 2c5.09 4.29 4.53-6.88 0 0zm-74 0c-10.6 8.7 15.4 16.7 13.6 3.88-2.42-4.8-9.57-1.93-13.6-3.88zm-638 1c-2.7 5.89 6.21 21.6 6.11 7.91-0.556-3.41-2.66-6.84-6.11-7.91zm663 5c6.94 13.1 23.5 13.3 35.8 18.5 12 3.63 24.5 6.12 37.1 6.22 5.19-11.9-16.1-8.88-22.7-12.6-16.7-3.95-33.2-9.32-50.1-12.2zm-724 2c-3.78 8.2-0.56 34.1 10.9 20.3 2.31-8.56-6.34-14.4-10.9-20.3zm31 0c-4.24 1.98 3.5 1.44 0 0zm-9 2c0.863 5.49 5.87-1.43 0 0zm197 1c-4.83 13.9-4.34 28.7-4.64 43.2-2.52 23.1-13.2 45-11.2 68.5 0.66 8.86 0.503 18.3 3.11 26.7 6.86 4.81 14 12 22 13.3 4.85-9.89-0.687-22.6 2.22-33.6 0.674-20-4.95-40.4 1.52-60 3.23-12.3-0.936-25.8 5.1-37.6 8.78-15-4.57-20.8-18.1-20.4zm-188 0c-4.19 1.1 3.04 1.99 0 0zm309 1 0.155 0.309zm300 0c-4.24 8.07-26 2.01-17.9 16.8 10.9 6.73 25.1 0.0348 37.2 2.9 13.1 2.88 24.9-3.64 37.7-3.93 10.4-8.54-16.2-9.06-22.3-11-11.4-2.35-22.9-6.49-34.7-4.75zm-560-30c-2.13 21.7 1.86 43.5-0.653 65.2-7.51 11.7 17.9 15.5 10.6 0.97-3.21-20.2-2.54-40.6-3.12-60.9-0.286-3.31-3.03-7.5-6.84-5.28zm-14.2 39c-9.81 4.08-2.53 27.6 4.78 13.5 1.05-4.85-0.592-10.6-4.78-13.5zm640 2c0.905 6.77 7.11-3.39 0 0zm97 3c0.226 4.56 4.15-2.54 0 0zm175 0 0.155 0.309zm-927 2c3.14 4.61 3.28-5.1 0 0zm760 0c-2.92 2.21 2.35 1.3 0 0zm-798 3.31c-7.45 10.7 1.75 23.6 7.84 32.5 14.2 0.28 5.66-22.1 0.118-29.2-1.93-1.7-5.38-6.74-7.96-3.31zm592-2.38c-15.2 2.2-30.6 3.88-45.6 7.34 9.74 2.3 19.7-1.03 29.5-1.74 3.79 0.731 24.8-4.87 16.2-5.6zm209 0.0625c-18.1 7.18 15.4 3.33 0 0zm8 1c6.55 8.48 19.4 6.86 28.8 9.26 13.2 0.588 22.7 10.8 35.1 13.6 17.6 3.61 35.9 2.01 53.6 5.63 11.6 1.65 23.2 0.225 34.8 0.375 5.97-2.23 20.8 4.5 21.4-2.15-13.6-4.52-27-10.6-41.3-12.9-25-4.85-50.4-6.73-75.2-12.4-17.1-1.83-34.2 1.51-51.3-1.04-1.95-0.148-3.89-0.277-5.84-0.344zm3 3c-0.71 3.87 3.18-1.85 0 0zm-758 9c-1.06 4.71 3.39-2.14 0 0zm411 0c-2.31 4.04-18.3 7.38-6.63 10.9 11.8-1.6 23.6-3.19 35.4-4.85 9.86-3.53 25.1-1.55 31.7-9.02-13.2-1.8-26.9 1.1-40.2 2.29-6.54-0.108-14.2 3.98-20.3 0.72zm266 4c0.146 3.71 2.18-2.27 0 0zm-290 3c3.6 5.38 6.18-5.46 0 0zm-415 4c-1.7 7.18-7.77 24.6 6.23 19.9 11.5 3.81-5.52 20.4 6.1 26.7 8.75 6.27 15.9-19.6 18.5-4.62-4.23 9.21-9.81 19.6-0.604 28.2 1.54 7.5 10.7 11 8.14 0.26-5.02-11.6 13.2-23.9 13.6-6.88-2.77 12.2-2.12 25.5 3.15 37-1.52 12.1 14.1 16.2 9.53 1.08 1.65-9.49-3.22-21.2 3.95-28.8 12-6.91 2.77-18-6.67-21.3-9.74-6.88-17.2-16.8-27.7-22.7-11.7 3.68-11.2-14.9-22-16.3-4.25-4-6.56-10.2-12.2-12.5zm777 0c-13.2 5.26-27.9-2.77-41.2 3.52-14.2-0.109-28 2.13-41.6 5.86-11 3.72-24.1 2.2-33.7 8.71 3.68 7.49 17.3 6.78 24.5 12.1 8.3 3.56 20 5.93 25.9-2.97 8.07-4.26 17.3-6.15 25.7-9.6 12-1.56 23.8-4.53 36-4.35 10.6-2.32 20.9-4.25 31.8-3.03 15.3-6.21-8.86-14.4-16.6-10.5-3.61-0.109-7.22 0.274-10.8 0.331zm35 5c-0.078 4.78 3.54-2.67 0 0zm4 1c-1.58 4.55 4.88-1.34 0 0zm147 0c0.414 4.62 4.05-2.36 0 0zm7 2c3.2 6 21.7 3.01 8.15 0.686-2.72-0.126-5.48-0.0421-8.15-0.686zm-921 3c0.549 4.21 4.61-0.941 0 0zm941 1c0.946 2.85 1.67-2.51 0 0zm-938 2 0.155 0.309zm-63 1c-3.77 2.54 3.13 0.805 0 0zm1038 4c4.41 2.31 15.4 2.46 5.99-1.85-2.12-0.343-4.52 0.162-5.99 1.85zm11-1c7.51 12.1 23.3 7.77 34.9 10.5 4.19 3.48 22.8 5.93 14.7-2.2-10.7-4.27-22.7-2.8-33.7-6.53-5.24-1.06-10.6-1.96-15.9-1.74zm-1049 1c-0.548 4.49 3.29-2.45 0 0zm917 1c-10-2.01-12.5 16.8-24.1 9.21-16.7-1.55-33.5 0.736-50 1.95-11.5 4.71-23.7 6.48-36 6.15-12.3 4.13-24.7 8.12-37.5 3.65-10.8-1.41-13.6 12.2-1.05 10.2 12.4 2.71 24.8 7.62 37.7 4.91 18.9-3 36.8-11.3 56.2-11.4 13.5-2.56 27.2-2.23 40.8-2.43 16.7-1.91 31.7-9.97 47.7-14.1 9.62-10-13.1-9.39-19.6-9.05-4.7 0.0625-9.39 0.4-14.1 0.944zm-381 4c-13.5-1.76-0.748 17.3 6.85 6.42 5.49-5.83-1.83-10.3-6.85-6.42zm18 1c-6.57 8.04 15.5 3.17 4.08-1.67l-2.15 0.559zm-548 0c-0.699 4.86 4.57-1.62 0 0zm481 3c-12.4-0.379-11.4 18.3 1.74 13.3 9.47-1.73 10.6-19.8-1.74-13.3zm620 0c-0.814 10.5 23.2 1.13 7.31 0.493-2.43 0.11-4.97 0.441-7.31-0.493zm18 3c1.57 3 2.44-2.76 0 0zm-75 8c-3.26 8.54-17.7-0.0722-19.4 10.7-11.3 12.5 13.6 8.58 19.8 4.33 8.29-5.57 22.5 1.81 28-7.31-6.38-6.61-17.8-3.29-26-7.09-0.789-0.198-1.58-0.401-2.36-0.606zm-957 1c-2.65 3.45 4.44 0.209 0 0zm691 0c1.85 3.39 2.92-2.91 0 0zm-689 3c-0.0777 4.78 3.54-2.67 0 0zm988 2c0.581 7.03 7.69-2.61 0 0zm118 3c-2.39 3.84 3.51-0.73 0 0zm8 1 0.155 0.309zm-2 2c-0.672 2.88 2.25-1.55 0 0zm4 1c4.31 10.3 18.5 6.83 26.5 13 18.6 5.47 38.2 4.47 57.3 5.98 8.72-2.6 23.2 5.84 27.4-3.61-10.3-5.82-24.7-0.212-35.4-7.46-12.5-4.21-26-3.39-38.8-6.2-12.3 0.391-25.1-4.64-37-1.67zm-572 2c-2.92 2.21 2.35 1.3 0 0zm331 2c-11.5 4.75-24.3 4.52-36 8.52-9.53-1.85-30.9 7.94-15.4 16.4 10.4 3.92 21.6 6.7 32.7 7.19 9.99 0.162 20-1.96 29.1-6.12 12.1 1.81 18.7-8.7 23-17.6 4.89-1.39 23.1-2.82 10.2-6.77-10.4 1.31-20.2-0.594-30.3-2.66-4.46-0.486-9.05-0.385-13.4 0.953zm49-1c-0.933 3.31 2.9-1.34 0 0zm124-4c9.74 9.24-4.97 21.2-12.8 10.5-9.48-1.61-19.4-1.67-29-1.72-14.2 3.39-29.2 1.44-43.2 6.19-11.9-4.49-19.4 14-2.92 10.7 11.5 1.69 23 0.0132 34.5 0.653 17.8 3.87 35.9 2.11 53.9 2.12 11.3 0.361 22.3 4.79 33.7 2.41 9.38-1.8 29.5 2.93 26.8-12.7-6.75-7.23-18.6-6.24-27.4-10.4-10.9-3.66-22.2-5.79-33.5-7.73zm184 17c-3.77 13 23.2 5.19 7.23-0.163-2.42-0.155-4.81 0.324-7.23 0.163zm-121 1c0.046 6.78 9.11-1.93 0.355 0.0314zm138 3c-1.53 9.67 20.2 4.18 6.76 1.22-2.28-0.024-4.78 0.188-6.76-1.22zm166 0c-2.92 2.21 2.35 1.3 0 0zm45 0c-2.15 5.87 6.41-1.24 0 0zm-193 4c4.26 10.1 17.7 5.18 25.8 9.37 7.31 3.06 13.2-4.19 2.55-4.74-9.31-2.29-18.9-2.87-28.3-4.62zm-153 12.6c-6.73 3.18-30.6 6.64-15.1 15.7 26.6 10.3 55.8 12.3 83.9 8.96 20.5-1.22 42.9 3.77 61.5-7.48 7.25-5.31 23.5-1.83 25.9-10.3-9.96-6.36-23.1-5.9-34.5-8.68-18.1-3.26-36.6-3.45-54.9-3.85-22.2-2.31-46.2-5.65-66.7 5.59zm195-4.62c-3.23 2.02 3.34 1.81 0 0zm4 1c5.66 9.67 19.5 8.57 28.9 11.7 7.22 0.396 21.5 3.56 24.4-1.79-9.95-6.37-23.5-1.48-33.7-8.59-6.45-1.49-13.1-0.63-19.7-1.27zm275 16 0.555 0.139zm-199 1c0.624 3.48 2.43-2.81 0 0zm154 1c-0.587 3.9 3.01-2.21 0 0zm-107 5c4.92 12 21.2 7.09 31.3 11.2 15.2 3.14 28.8 12.8 44.7 12.7 14.2-4.92-3.69-15.2-11.7-12.1-15.2-0.88-30.4-2.84-45.4-5.75-6.35-1.74-12.4-4.32-18.8-5.98zm-44 11c-0.383 4.51 4.16-2.19 0 0zm5 0c-0.787 5.26 4.51-2.24 0 0zm12 8c-2.82 3.13 2.76 0.599 0 0zm112 0c-0.078 4.78 3.54-2.67 0 0zm-128 1c-2.82 3.13 2.76 0.599 0 0zm27 3 0.155 0.309zm-1338 7c-2.92 2.21 2.35 1.3 0 0z"/>
  <path d="m671 69.5c8.16 11.4 10.1 25.9 7.34 39.5-1.82 17.4-0.0215 35-1.11 52.5-0.821 13.6 0.611 27.4-0.819 40.9-2.24 13.5 2.5 26.8 2.04 40.3 1.79 18.2 8.26 37 2.12 55.1-4.59 13.7-16.3-2.33-10.5-10.3-0.845-13.9-5.92-27.3-5.24-41.3-3.09-11.6-3.38-23.5-2.1-35.4-0.212-28.7 0.683-57.3 1.87-85.9 1.91-14 4.68-29.3-2.33-42.3-2.67-5.76 1.63-14.5 8.74-12.9z"/>
  <path d="m382 761c3.5 9.62-3.45 19.3-2.93 29.1 2.72 7.97-2.46 30.4-11.8 16.5-1.8-11.7 3.06-23.4 3.9-35.1 0.872-5.4 4.77-10.9 10.8-10.4z"/>
  <path d="m450 38c12.4 4.99 2.04 19.6 2.03 28.8 0.907 9.18-13.7 19.7-13.4 5.11 1.17-11.8 2.12-25.3 11.4-33.9z"/>
 </g>
</svg>
